<?xml version="1.0" encoding="UTF-8"?>
<svg width="351px" height="50px" viewBox="0 0 351 50" version="1.1" xmlns="http://www.w3.org/2000/svg" xmlns:xlink="http://www.w3.org/1999/xlink">
    <!-- Generator: Sketch 52.6 (67491) - http://www.bohemiancoding.com/sketch -->
    <title>buGraphql</title>
    <desc>Created with Sketch.</desc>
    <g id="buGraphql" stroke="none" stroke-width="1" fill="none" fill-rule="evenodd">
        <rect fill="#FFFFFF" x="0" y="0" width="351" height="50"></rect>
        <path d="M43.4946289,21.0976562 C45.1274496,21.0976562 46.3574177,21.6114857 47.1845703,22.6391602 C48.0117229,23.6668346 48.425293,25.1689354 48.425293,27.1455078 C48.425293,29.0862727 47.9902387,30.5830025 47.1201172,31.6357422 C46.2499956,32.6884818 45.0271889,33.2148438 43.4516602,33.2148438 C42.6209268,33.2148438 41.8725619,33.0429705 41.206543,32.6992188 C40.540524,32.355467 40.0141621,31.8684927 39.6274414,31.2382812 L39.5307617,31.2382812 L39.2299805,33 L38.5639648,33 L38.5639648,16.2851562 L39.6274414,16.2851562 L39.6274414,20.4853516 C39.6274414,21.115563 39.6131186,21.6956354 39.5844727,22.2255859 L39.5522461,23.1386719 L39.6274414,23.1386719 C40.071454,22.4368454 40.6067677,21.9212256 41.2333984,21.5917969 C41.8600292,21.2623681 42.6137651,21.0976562 43.4946289,21.0976562 Z M43.4731445,22.0644531 C42.0981377,22.0644531 41.113447,22.4583294 40.519043,23.2460938 C39.924639,24.0338581 39.6274414,25.3336498 39.6274414,27.1455078 L39.6274414,27.328125 C39.6274414,29.0898526 39.9371714,30.3538373 40.5566406,31.1201172 C41.1761099,31.8863971 42.1411067,32.2695312 43.4516602,32.2695312 C44.7264061,32.2695312 45.6860319,31.8237349 46.3305664,30.9321289 C46.9751009,30.0405229 47.2973633,28.7711671 47.2973633,27.1240234 C47.2973633,23.7509597 46.0226364,22.0644531 43.4731445,22.0644531 Z M52.5825195,21.3232422 L52.5825195,28.8857422 C52.5825195,30.0602272 52.8295874,30.9142226 53.3237305,31.4477539 C53.8178736,31.9812852 54.5841419,32.2480469 55.6225586,32.2480469 C57.0118885,32.2480469 58.0341764,31.8971389 58.6894531,31.1953125 C59.3447298,30.4934861 59.6723633,29.3512449 59.6723633,27.7685547 L59.6723633,21.3232422 L60.7250977,21.3232422 L60.7250977,33 L59.8227539,33 L59.6293945,31.3886719 L59.5649414,31.3886719 C58.805823,32.6061259 57.4559016,33.2148438 55.5151367,33.2148438 C52.8582224,33.2148438 51.5297852,31.7933085 51.5297852,28.9501953 L51.5297852,21.3232422 L52.5825195,21.3232422 Z M65.6987305,33 L64.6352539,33 L64.6352539,21.3232422 L65.6987305,21.3232422 L65.6987305,33 Z M64.4848633,18.0791016 C64.4848633,17.3915981 64.710447,17.0478516 65.1616211,17.0478516 C65.3836274,17.0478516 65.557291,17.1373689 65.6826172,17.3164062 C65.8079433,17.4954436 65.8706055,17.7496728 65.8706055,18.0791016 C65.8706055,18.4013688 65.8079433,18.655598 65.6826172,18.8417969 C65.557291,19.0279957 65.3836274,19.1210938 65.1616211,19.1210938 C64.710447,19.1210938 64.4848633,18.7737665 64.4848633,18.0791016 Z M70.6723633,33 L69.6088867,33 L69.6088867,16.2851562 L70.6723633,16.2851562 L70.6723633,33 Z M77.6655273,32.2695312 C78.3387078,32.2695312 78.9259415,32.2122402 79.4272461,32.0976562 L79.4272461,32.9570312 C78.9116185,33.1289071 78.3172234,33.2148438 77.644043,33.2148438 C76.6127878,33.2148438 75.8518905,32.9391304 75.3613281,32.3876953 C74.8707658,31.8362603 74.6254883,30.9697325 74.6254883,29.7880859 L74.6254883,22.2470703 L72.8959961,22.2470703 L72.8959961,21.6240234 L74.6254883,21.140625 L75.1625977,18.4980469 L75.7104492,18.4980469 L75.7104492,21.3232422 L79.137207,21.3232422 L79.137207,22.2470703 L75.7104492,22.2470703 L75.7104492,29.6376953 C75.7104492,30.5328821 75.8679997,31.1953104 76.1831055,31.625 C76.4982112,32.0546896 76.9923469,32.2695312 77.6655273,32.2695312 Z M88.590332,21.3232422 L88.590332,28.8857422 C88.590332,30.0602272 88.8373999,30.9142226 89.331543,31.4477539 C89.8256861,31.9812852 90.5919544,32.2480469 91.6303711,32.2480469 C93.019701,32.2480469 94.0419889,31.8971389 94.6972656,31.1953125 C95.3525423,30.4934861 95.6801758,29.3512449 95.6801758,27.7685547 L95.6801758,21.3232422 L96.7329102,21.3232422 L96.7329102,33 L95.8305664,33 L95.637207,31.3886719 L95.5727539,31.3886719 C94.8136355,32.6061259 93.4637141,33.2148438 91.5229492,33.2148438 C88.8660349,33.2148438 87.5375977,31.7933085 87.5375977,28.9501953 L87.5375977,21.3232422 L88.590332,21.3232422 Z M107.883301,29.9599609 C107.883301,31.0055391 107.485844,31.8094047 106.690918,32.371582 C105.895992,32.9337593 104.768074,33.2148438 103.307129,33.2148438 C101.745923,33.2148438 100.507003,32.9749373 99.590332,32.4951172 L99.590332,31.3457031 C100.764817,31.9329456 102.003737,32.2265625 103.307129,32.2265625 C104.460129,32.2265625 105.335609,32.0349954 105.933594,31.6518555 C106.531579,31.2687155 106.830566,30.7584667 106.830566,30.1210938 C106.830566,29.5338512 106.59245,29.0397155 106.116211,28.6386719 C105.639972,28.2376282 104.85759,27.8437519 103.769043,27.4570312 C102.601719,27.0345031 101.781741,26.6710627 101.309082,26.3666992 C100.836423,26.0623357 100.480144,25.7185892 100.240234,25.3354492 C100.000324,24.9523093 99.8803711,24.4850288 99.8803711,23.9335938 C99.8803711,23.0598915 100.247392,22.3688176 100.981445,21.8603516 C101.715498,21.3518855 102.741367,21.0976562 104.059082,21.0976562 C105.319505,21.0976562 106.515457,21.333982 107.646973,21.8066406 L107.249512,22.7734375 C106.103673,22.3007789 105.040207,22.0644531 104.059082,22.0644531 C103.106603,22.0644531 102.351077,22.2220036 101.79248,22.5371094 C101.233884,22.8522151 100.95459,23.2890597 100.95459,23.8476562 C100.95459,24.4563833 101.171222,24.9433575 101.604492,25.3085938 C102.037763,25.67383 102.884597,26.082029 104.14502,26.5332031 C105.197759,26.9127623 105.964028,27.2547185 106.443848,27.559082 C106.923668,27.8634455 107.283527,28.2089824 107.523438,28.5957031 C107.763348,28.9824238 107.883301,29.4371719 107.883301,29.9599609 Z M111.95459,33 L110.891113,33 L110.891113,21.3232422 L111.95459,21.3232422 L111.95459,33 Z M110.740723,18.0791016 C110.740723,17.3915981 110.966306,17.0478516 111.41748,17.0478516 C111.639487,17.0478516 111.81315,17.1373689 111.938477,17.3164062 C112.063803,17.4954436 112.126465,17.7496728 112.126465,18.0791016 C112.126465,18.4013688 112.063803,18.655598 111.938477,18.8417969 C111.81315,19.0279957 111.639487,19.1210938 111.41748,19.1210938 C110.966306,19.1210938 110.740723,18.7737665 110.740723,18.0791016 Z M124.007324,33 L124.007324,25.4267578 C124.007324,24.2522728 123.760256,23.3982774 123.266113,22.8647461 C122.77197,22.3312148 122.005702,22.0644531 120.967285,22.0644531 C119.570794,22.0644531 118.548506,22.4171514 117.900391,23.1225586 C117.252275,23.8279658 116.928223,24.9719973 116.928223,26.5546875 L116.928223,33 L115.864746,33 L115.864746,21.3232422 L116.76709,21.3232422 L116.971191,22.9238281 L117.035645,22.9238281 C117.794763,21.7063741 119.144684,21.0976562 121.085449,21.0976562 C123.735202,21.0976562 125.060059,22.5191915 125.060059,25.3623047 L125.060059,33 L124.007324,33 Z M137.950684,21.3232422 L137.950684,22.0644531 L135.533691,22.2148438 C136.178226,23.0169311 136.500488,23.8977817 136.500488,24.8574219 C136.500488,25.9817765 136.126306,26.8930629 135.37793,27.5913086 C134.629554,28.2895543 133.625169,28.6386719 132.364746,28.6386719 C131.834796,28.6386719 131.462403,28.6171877 131.247559,28.5742188 C130.82503,28.7962251 130.502768,29.0576157 130.280762,29.3583984 C130.058755,29.6591812 129.947754,29.9778629 129.947754,30.3144531 C129.947754,30.6868508 130.089191,30.9589835 130.37207,31.1308594 C130.654949,31.3027352 131.129391,31.3886719 131.79541,31.3886719 L133.836426,31.3886719 C135.10401,31.3886719 136.074378,31.6446915 136.747559,32.1567383 C137.420739,32.6687851 137.757324,33.4261018 137.757324,34.4287109 C137.757324,35.6604879 137.257817,36.611162 136.258789,37.2807617 C135.259761,37.9503614 133.836435,38.2851562 131.98877,38.2851562 C130.520663,38.2851562 129.383793,38.0022815 128.578125,37.4365234 C127.772457,36.8707654 127.369629,36.0830129 127.369629,35.0732422 C127.369629,34.2711548 127.618487,33.6051459 128.116211,33.0751953 C128.613935,32.5452447 129.288895,32.1835947 130.141113,31.9902344 C129.7902,31.839843 129.509116,31.6267917 129.297852,31.3510742 C129.086587,31.0753567 128.980957,30.7584653 128.980957,30.4003906 C128.980957,29.6197878 129.478673,28.9322946 130.474121,28.3378906 C129.793779,28.0585924 129.263837,27.6199574 128.884277,27.0219727 C128.504718,26.4239879 128.314941,25.7382851 128.314941,24.9648438 C128.314941,23.7975202 128.685543,22.8611689 129.426758,22.1557617 C130.167972,21.4503545 131.168776,21.0976562 132.429199,21.0976562 C133.195479,21.0976562 133.789874,21.1728508 134.212402,21.3232422 L137.950684,21.3232422 Z M128.497559,34.9765625 C128.497559,36.5807372 129.689929,37.3828125 132.074707,37.3828125 C135.139827,37.3828125 136.672363,36.4052832 136.672363,34.4501953 C136.672363,33.7483689 136.432457,33.2399104 135.952637,32.9248047 C135.472817,32.6096989 134.695806,32.4521484 133.621582,32.4521484 L131.709473,32.4521484 C129.568186,32.4521484 128.497559,33.2936114 128.497559,34.9765625 Z M129.38916,24.9648438 C129.38916,25.867192 129.663083,26.5672176 130.210938,27.0649414 C130.758792,27.5626652 131.491044,27.8115234 132.407715,27.8115234 C133.381678,27.8115234 134.128253,27.5644556 134.647461,27.0703125 C135.166669,26.5761694 135.42627,25.8600307 135.42627,24.921875 C135.42627,23.9264273 135.159508,23.1798527 134.625977,22.6821289 C134.092445,22.1844051 133.345871,21.9355469 132.38623,21.9355469 C131.455236,21.9355469 130.722984,22.2023085 130.189453,22.7358398 C129.655922,23.2693712 129.38916,24.012365 129.38916,24.9648438 Z" id="Left" fill="#E00083"></path>
        <path d="M175,39.9796527 C173.682829,39.8165815 172.662892,38.6932028 172.661739,37.3299992 C172.661739,37.0737492 172.697944,36.8174992 172.771602,36.5687492 L166.609287,33.0099995 C165.590557,34.0774994 163.898917,34.1187494 162.831498,33.0974995 C161.765327,32.0774995 161.725377,30.3837496 162.744107,29.3149997 C163.097416,28.9437497 163.550601,28.6824998 164.047482,28.5612498 L164.04873,21.4375002 C162.61302,21.0925003 161.729123,19.6462504 162.074941,18.2075004 C162.133618,17.9600005 162.2285,17.7212505 162.354593,17.5000005 C163.093671,16.2200006 164.729131,15.7825006 166.008786,16.5225006 C166.22976,16.6487505 166.432008,16.8075005 166.608038,16.9937505 L172.772851,13.4312508 C172.353374,12.0150008 173.161116,10.5287509 174.571857,10.110001 C174.711389,10.0681601 174.854939,10.0383893 175,10.0204603 L175,0 L351.766,0 L351.766,50 L175,50 L175,39.9796527 Z M175,34.6741674 L175,31.8012496 L167.270962,31.8012496 L167.244744,31.9049995 L173.410805,35.4699993 C173.822889,35.0403871 174.37773,34.7509956 175,34.6741674 Z M175,30.5299996 L175,15.326639 C174.862059,15.3093451 174.725171,15.281299 174.590584,15.2425006 L166.525641,29.2287497 C166.892683,29.5824997 167.15236,30.0349997 167.274707,30.5299996 L175,30.5299996 Z M214.07,36.3 C215.750008,36.3 217.199994,35.9600034 218.42,35.28 C219.640006,34.5999966 220.569997,33.6500061 221.21,32.43 C221.850003,31.2099939 222.17,29.800008 222.17,28.2 L222.17,25.56 C222.17,25.3399989 222.110001,25.1700006 221.99,25.05 C221.869999,24.9299994 221.700001,24.87 221.48,24.87 L215.06,24.87 C214.859999,24.87 214.700001,24.9349994 214.58,25.065 C214.459999,25.1950006 214.4,25.359999 214.4,25.56 L214.4,25.98 C214.4,26.180001 214.459999,26.3449994 214.58,26.475 C214.700001,26.6050007 214.859999,26.67 215.06,26.67 L220.28,26.67 L220.28,28.2 C220.28,30.2800104 219.710006,31.8499947 218.57,32.91 C217.429994,33.9700053 215.930009,34.5 214.07,34.5 C212.209991,34.5 210.745005,33.9900051 209.675,32.97 C208.604995,31.9499949 208.03,30.3600108 207.95,28.2 C207.93,27.599997 207.92,26.700006 207.92,25.5 C207.92,24.299994 207.93,23.400003 207.95,22.8 C208.03,20.6399892 208.604995,19.0500051 209.675,18.03 C210.745005,17.0099949 212.209991,16.5 214.07,16.5 C215.710008,16.5 217.014995,16.8599964 217.985,17.58 C218.955005,18.3000036 219.609998,19.1899947 219.95,20.25 C220.03,20.4900012 220.11,20.6499996 220.19,20.73 C220.27,20.8100004 220.399999,20.85 220.58,20.85 L221.24,20.85 C221.420001,20.85 221.569999,20.8000005 221.69,20.7 C221.810001,20.5999995 221.87,20.4700008 221.87,20.31 L221.87,20.25 C221.83,19.5699966 221.525003,18.7950043 220.955,17.925 C220.384997,17.0549957 219.520006,16.3000032 218.36,15.66 C217.199994,15.0199968 215.770009,14.7 214.07,14.7 C211.569988,14.7 209.630007,15.4199928 208.25,16.86 C206.869993,18.3000072 206.14,20.2299879 206.06,22.65 C206.04,23.250003 206.03,24.1999935 206.03,25.5 C206.03,26.8000065 206.04,27.749997 206.06,28.35 C206.14,30.7700121 206.869993,32.6999928 208.25,34.14 C209.630007,35.5800072 211.569988,36.3 214.07,36.3 Z M227.06,36 L227.54,36 C227.740001,36 227.904999,35.9400006 228.035,35.82 C228.165001,35.6999994 228.23,35.540001 228.23,35.34 L228.23,26.04 C228.23,24.839994 228.579997,23.8900035 229.28,23.19 C229.980004,22.4899965 230.929994,22.14 232.13,22.14 L233.42,22.14 C233.620001,22.14 233.779999,22.0800006 233.9,21.96 C234.020001,21.8399994 234.08,21.680001 234.08,21.48 L234.08,21.06 C234.08,20.859999 234.020001,20.7000006 233.9,20.58 C233.779999,20.4599994 233.620001,20.4 233.42,20.4 L232.31,20.4 C230.30999,20.4 228.950004,21.0899931 228.23,22.47 L228.23,21.09 C228.23,20.889999 228.165001,20.7250006 228.035,20.595 C227.904999,20.4649993 227.740001,20.4 227.54,20.4 L227.06,20.4 C226.859999,20.4 226.700001,20.4649993 226.58,20.595 C226.459999,20.7250006 226.4,20.889999 226.4,21.09 L226.4,35.34 C226.4,35.540001 226.459999,35.6999994 226.58,35.82 C226.700001,35.9400006 226.859999,36 227.06,36 Z M241.04,36.3 C242.440007,36.3 243.564996,36.0700023 244.415,35.61 C245.265004,35.1499977 245.909998,34.5900033 246.35,33.93 L246.35,35.34 C246.35,35.540001 246.409999,35.6999994 246.53,35.82 C246.650001,35.9400006 246.809999,36 247.01,36 L247.52,36 C247.720001,36 247.879999,35.9400006 248,35.82 C248.120001,35.6999994 248.18,35.540001 248.18,35.34 L248.18,25.35 C248.18,23.8899927 247.730005,22.6500051 246.83,21.63 C245.929996,20.6099949 244.410011,20.1 242.27,20.1 C241.049994,20.1 240.020004,20.3199978 239.18,20.76 C238.339996,21.2000022 237.720002,21.7149971 237.32,22.305 C236.919998,22.8950029 236.72,23.4099978 236.72,23.85 C236.72,24.0300009 236.784999,24.1849993 236.915,24.315 C237.045001,24.4450006 237.199999,24.51 237.38,24.51 L237.8,24.51 C237.980001,24.51 238.124999,24.4650004 238.235,24.375 C238.345001,24.2849996 238.44,24.1200012 238.52,23.88 C238.700001,23.3199972 239.114997,22.840002 239.765,22.44 C240.415003,22.039998 241.249995,21.84 242.27,21.84 C243.650007,21.84 244.674997,22.1349971 245.345,22.725 C246.015003,23.315003 246.35,24.1599945 246.35,25.26 L246.35,26.31 L241.61,26.97 C239.789991,27.2100012 238.345005,27.7499958 237.275,28.59 C236.204995,29.4300042 235.67,30.5099934 235.67,31.83 C235.67,32.6500041 235.914998,33.3999966 236.405,34.08 C236.895002,34.7600034 237.549996,35.299998 238.37,35.7 C239.190004,36.100002 240.079995,36.3 241.04,36.3 Z M241.34,34.56 C240.319995,34.56 239.425004,34.3100025 238.655,33.81 C237.884996,33.3099975 237.5,32.6000046 237.5,31.68 C237.5,30.8599959 237.919996,30.1800027 238.76,29.64 C239.600004,29.0999973 240.839992,28.7200011 242.48,28.5 L246.35,27.96 L246.35,28.98 C246.35,30.780009 245.880005,32.1599952 244.94,33.12 C243.999995,34.0800048 242.800007,34.56 241.34,34.56 Z M253.61,41.7 L254.12,41.7 C254.320001,41.7 254.479999,41.6400006 254.6,41.52 C254.720001,41.3999994 254.78,41.240001 254.78,41.04 L254.78,33.93 C255.960006,35.5100079 257.639989,36.3 259.82,36.3 C261.980011,36.3 263.574995,35.6150069 264.605,34.245 C265.635005,32.8749932 266.18,31.19001 266.24,29.19 C266.26,28.989999 266.27,28.6600023 266.27,28.2 C266.27,27.7399977 266.26,27.410001 266.24,27.21 C266.18,25.20999 265.635005,23.5250069 264.605,22.155 C263.574995,20.7849931 261.980011,20.1 259.82,20.1 C257.619989,20.1 255.940006,20.8899921 254.78,22.47 L254.78,21.06 C254.78,20.859999 254.720001,20.7000006 254.6,20.58 C254.479999,20.4599994 254.320001,20.4 254.12,20.4 L253.61,20.4 C253.409999,20.4 253.250001,20.4599994 253.13,20.58 C253.009999,20.7000006 252.95,20.859999 252.95,21.06 L252.95,41.04 C252.95,41.240001 253.009999,41.3999994 253.13,41.52 C253.250001,41.6400006 253.409999,41.7 253.61,41.7 Z M259.64,34.56 C258.579995,34.56 257.690004,34.3100025 256.97,33.81 C256.249996,33.3099975 255.710002,32.6750039 255.35,31.905 C254.989998,31.1349961 254.8,30.3200043 254.78,29.46 L254.75,28.29 L254.78,27.12 C254.84,25.6999929 255.269996,24.4650052 256.07,23.415 C256.870004,22.3649948 258.059992,21.84 259.64,21.84 C261.400009,21.84 262.639996,22.4349941 263.36,23.625 C264.080004,24.8150059 264.44,26.3399907 264.44,28.2 C264.44,28.5600018 264.43,28.839999 264.41,29.04 C264.35,30.6600081 263.945004,31.9849948 263.195,33.015 C262.444996,34.0450052 261.260008,34.56 259.64,34.56 Z M271.04,36 L271.55,36 C271.750001,36 271.909999,35.9400006 272.03,35.82 C272.150001,35.6999994 272.21,35.540001 272.21,35.34 L272.21,26.97 C272.21,25.369992 272.639996,24.1150046 273.5,23.205 C274.360004,22.2949955 275.509993,21.84 276.95,21.84 C278.430007,21.84 279.564996,22.2899955 280.355,23.19 C281.145004,24.0900045 281.54,25.3499919 281.54,26.97 L281.54,35.34 C281.54,35.540001 281.599999,35.6999994 281.72,35.82 C281.840001,35.9400006 281.999999,36 282.2,36 L282.71,36 C282.910001,36 283.069999,35.9400006 283.19,35.82 C283.310001,35.6999994 283.37,35.540001 283.37,35.34 L283.37,26.82 C283.37,24.8399901 282.840005,23.2250062 281.78,21.975 C280.719995,20.7249937 279.21001,20.1 277.25,20.1 C276.029994,20.1 275.035004,20.299998 274.265,20.7 C273.494996,21.100002 272.810003,21.6899961 272.21,22.47 L272.21,15.36 C272.21,15.159999 272.150001,15.0000006 272.03,14.88 C271.909999,14.7599994 271.750001,14.7 271.55,14.7 L271.04,14.7 C270.839999,14.7 270.680001,14.7599994 270.56,14.88 C270.439999,15.0000006 270.38,15.159999 270.38,15.36 L270.38,35.34 C270.38,35.540001 270.439999,35.6999994 270.56,35.82 C270.680001,35.9400006 270.839999,36 271.04,36 Z M302.06,37.95 L302.72,37.95 C302.880001,37.95 303.019999,37.8900006 303.14,37.77 C303.260001,37.6499994 303.32,37.5100008 303.32,37.35 C303.32,37.2499995 303.29,37.1400006 303.23,37.02 L301.31,34.32 C302.670007,32.9799933 303.4,30.8800143 303.5,28.02 C303.54,26.819994 303.56,25.9800024 303.56,25.5 C303.56,25.0199976 303.54,24.180006 303.5,22.98 C303.42,20.2599864 302.680007,18.200007 301.28,16.8 C299.879993,15.399993 297.980012,14.7 295.58,14.7 C293.179988,14.7 291.280007,15.399993 289.88,16.8 C288.479993,18.200007 287.74,20.2599864 287.66,22.98 C287.64,23.580003 287.63,24.4199946 287.63,25.5 C287.63,26.5800054 287.64,27.419997 287.66,28.02 C287.800001,33.5400276 290.439974,36.3 295.58,36.3 C297.180008,36.3 298.579994,36.0100029 299.78,35.43 L301.1,37.26 C301.440002,37.7200023 301.759999,37.95 302.06,37.95 Z M295.58,34.5 C293.779991,34.5 292.345005,33.9550055 291.275,32.865 C290.204995,31.7749946 289.63,30.1100112 289.55,27.87 C289.53,27.269997 289.52,26.4800049 289.52,25.5 C289.52,24.5199951 289.53,23.730003 289.55,23.13 C289.63,20.8899888 290.209995,19.2250054 291.29,18.135 C292.370005,17.0449945 293.799991,16.5 295.58,16.5 C297.360009,16.5 298.789995,17.0449945 299.87,18.135 C300.950005,19.2250054 301.53,20.8899888 301.61,23.13 C301.65,24.330006 301.67,25.1199981 301.67,25.5 C301.67,25.8800019 301.65,26.669994 301.61,27.87 C301.53,30.1100112 300.955005,31.7749946 299.885,32.865 C298.814995,33.9550055 297.380009,34.5 295.58,34.5 Z M308.99,36 L320.57,36 C320.770001,36 320.934999,35.9400006 321.065,35.82 C321.195001,35.6999994 321.26,35.540001 321.26,35.34 L321.26,34.89 C321.26,34.6699989 321.200001,34.5000006 321.08,34.38 C320.959999,34.2599994 320.790001,34.2 320.57,34.2 L310.22,34.2 L310.22,15.66 C310.22,15.459999 310.160001,15.3000006 310.04,15.18 C309.919999,15.0599994 309.760001,15 309.56,15 L308.99,15 C308.789999,15 308.630001,15.0599994 308.51,15.18 C308.389999,15.3000006 308.33,15.459999 308.33,15.66 L308.33,35.34 C308.33,35.540001 308.389999,35.6999994 308.51,35.82 C308.630001,35.9400006 308.789999,36 308.99,36 Z M173.48696,14.6087507 L173.412053,14.5337507 L167.237254,18.0987505 C167.645495,19.5175004 166.829013,20.9962503 165.413278,21.4050002 C165.380819,21.4150002 165.349608,21.4225002 165.318397,21.4312502 L165.318397,28.5662498 L165.423266,28.5949998 L173.489457,14.6075007 L173.48696,14.6087507 Z M175,39.9796527 C175.109229,39.9931757 175.220502,40.0000947 175.333407,39.999999 C175.618052,39.999999 175.898952,39.953749 176.169864,39.864999 C177.571866,39.4012491 178.333416,37.8874992 177.868995,36.4824993 L183.992609,32.9424995 C184.181124,33.1549995 184.404595,33.3374995 184.64929,33.4787494 C185.930193,34.2187494 187.564405,33.7799994 188.303483,32.5012495 C188.43457,32.2749995 188.533197,32.0299995 188.593122,31.7749996 C188.935195,30.3424997 188.051298,28.9049997 186.620582,28.5637498 L186.620582,21.4400002 C186.866525,21.3800002 187.099984,21.2862502 187.317213,21.1612503 C188.600613,20.4250003 189.046307,18.7862504 188.310974,17.5012505 C188.182384,17.2812505 188.02508,17.0800005 187.840311,16.9050005 C186.767898,15.8850006 185.073761,15.9275006 184.055031,17.0012505 L177.893964,13.4387508 C177.967622,13.1900008 178.006324,12.9287508 178.005076,12.6675008 C178.003827,11.1925009 176.807819,9.99875098 175.333407,10.000001 C175.222135,10.000001 175.110628,10.006787 175,10.0204603 L175,15.326639 C175.359804,15.3717484 175.726768,15.3437023 176.078728,15.2425006 L184.146167,29.2249997 C183.776628,29.5787497 183.514455,30.0324997 183.393356,30.5299996 L175,30.5299996 L175,31.8012496 L183.395853,31.8012496 C183.409586,31.8612496 183.424567,31.9199995 183.443294,31.9787495 L177.309693,35.5262493 C176.819055,34.9899993 176.116181,34.6537494 175.333407,34.6537494 C175.220467,34.6537494 175.109195,34.6606857 175,34.6741674 L175,39.9796527 Z M177.251016,14.5350007 L183.425816,18.1075005 C183.417077,18.1362504 183.409586,18.1675004 183.402095,18.1975004 C183.047538,19.6300004 183.917702,21.0787503 185.34717,21.4325002 L185.34717,28.5662498 C185.31471,28.5749998 185.277257,28.5837498 185.244797,28.5949998 L177.178606,14.6075007 C177.204824,14.5837507 177.227296,14.5612507 177.251016,14.5350007 Z" id="Right" fill="#E00083"></path>
    </g>
</svg>