<?xml version="1.0" encoding="UTF-8"?>
<svg width="175px" height="30px" viewBox="0 0 175 30" version="1.1" xmlns="http://www.w3.org/2000/svg" xmlns:xlink="http://www.w3.org/1999/xlink">
    <!-- Generator: Sketch 52.6 (67491) - http://www.bohemiancoding.com/sketch -->
    <title>codesandbox</title>
    <desc>Created with Sketch.</desc>
    <g id="codesandbox" stroke="none" stroke-width="1" fill="none" fill-rule="evenodd">
        <rect fill="#6CAEDD" x="0" y="0" width="175" height="30"></rect>
        <path d="M47.296875,14.3359375 C47.296875,15.5234434 47.0612003,16.4765589 46.5898438,17.1953125 C46.1184872,17.9140661 45.4791707,18.2734375 44.671875,18.2734375 C44.208331,18.2734375 43.8320327,18.1328139 43.5429688,17.8515625 C43.2539048,17.5703111 43.0859377,17.1875024 43.0390625,16.703125 L43.0078125,16.703125 C42.783853,17.2239609 42.4609396,17.6158841 42.0390625,17.8789062 C41.6171854,18.1419284 41.1250028,18.2734375 40.5625,18.2734375 C39.7916628,18.2734375 39.1953146,18.0221379 38.7734375,17.5195312 C38.3515604,17.0169246 38.140625,16.3125045 38.140625,15.40625 C38.140625,14.3541614 38.4544239,13.4934929 39.0820312,12.8242188 C39.7096386,12.1549446 40.5286408,11.8203125 41.5390625,11.8203125 C42.2578161,11.8203125 43.0026003,11.9270823 43.7734375,12.140625 L43.6015625,15.765625 L43.6015625,16 C43.6015625,16.5416694 43.6927074,16.9492174 43.875,17.2226562 C44.0572926,17.4960951 44.3593729,17.6328125 44.78125,17.6328125 C45.317711,17.6328125 45.7565087,17.3294301 46.0976562,16.7226562 C46.4388038,16.1158824 46.609375,15.3255257 46.609375,14.3515625 C46.609375,13.3411408 46.4036479,12.455733 45.9921875,11.6953125 C45.5807271,10.934892 44.9934934,10.3502625 44.2304688,9.94140625 C43.4674441,9.53255004 42.5963591,9.328125 41.6171875,9.328125 C40.4192648,9.328125 39.3632858,9.58723699 38.4492188,10.1054688 C37.5351517,10.6237005 36.8320337,11.3567661 36.3398438,12.3046875 C35.8476538,13.2526089 35.6015625,14.3411397 35.6015625,15.5703125 C35.6015625,17.2474042 36.036454,18.5429642 36.90625,19.4570312 C37.776046,20.3710983 39.0104087,20.828125 40.609375,20.828125 C41.0937524,20.828125 41.5846329,20.7812505 42.0820312,20.6875 C42.5794296,20.5937495 43.1822881,20.4114597 43.890625,20.140625 L43.890625,20.9140625 C42.833328,21.3307312 41.7552138,21.5390625 40.65625,21.5390625 C38.8385326,21.5390625 37.4218801,21.0169323 36.40625,19.9726562 C35.3906199,18.9283802 34.8828125,17.4765718 34.8828125,15.6171875 C34.8828125,14.2838475 35.1653618,13.0846407 35.7304688,12.0195312 C36.2955757,10.9544218 37.0950469,10.1276071 38.1289062,9.5390625 C39.1627656,8.95051789 40.3307227,8.65625 41.6328125,8.65625 C42.7526098,8.65625 43.7434853,8.88801852 44.6054688,9.3515625 C45.4674522,9.81510648 46.1315081,10.4778603 46.5976562,11.3398438 C47.0638044,12.2018272 47.296875,13.2005152 47.296875,14.3359375 Z M38.9453125,15.390625 C38.9453125,16.1354204 39.0885402,16.6953106 39.375,17.0703125 C39.6614598,17.4453144 40.1145802,17.6328125 40.734375,17.6328125 C42.0625066,17.6328125 42.773437,16.7317798 42.8671875,14.9296875 L42.9921875,12.65625 C42.5807271,12.5156243 42.078128,12.4453125 41.484375,12.4453125 C40.7083295,12.4453125 40.0911481,12.7122369 39.6328125,13.2460938 C39.1744769,13.7799506 38.9453125,14.4947872 38.9453125,15.390625 Z M52.9453125,11.34375 C53.3046893,11.34375 53.6901021,11.380208 54.1015625,11.453125 L53.953125,12.1953125 C53.5989566,12.1067704 53.2317727,12.0625 52.8515625,12.0625 C52.1276005,12.0625 51.5338565,12.3697886 51.0703125,12.984375 C50.6067685,13.5989614 50.375,14.3749953 50.375,15.3125 L50.375,20 L49.6015625,20 L49.6015625,11.5078125 L50.2578125,11.5078125 L50.3359375,13.0390625 L50.390625,13.0390625 C50.7395851,12.4140594 51.1119772,11.9752617 51.5078125,11.7226562 C51.9036478,11.4700508 52.3828097,11.34375 52.9453125,11.34375 Z M60.984375,20 L60.7890625,18.65625 L60.7265625,18.65625 C60.299477,19.2031277 59.8606793,19.5898426 59.4101562,19.8164062 C58.9596332,20.0429699 58.4270864,20.15625 57.8125,20.15625 C56.9791625,20.15625 56.3307315,19.9427105 55.8671875,19.515625 C55.4036435,19.0885395 55.171875,18.4973996 55.171875,17.7421875 C55.171875,16.9140584 55.5169236,16.2708356 56.2070312,15.8125 C56.8971389,15.3541644 57.8958268,15.1119793 59.203125,15.0859375 L60.8203125,15.0390625 L60.8203125,14.4765625 C60.8203125,13.6692668 60.6562516,13.0598979 60.328125,12.6484375 C59.9999984,12.2369771 59.4713578,12.03125 58.7421875,12.03125 C57.9557252,12.03125 57.1406292,12.2499978 56.296875,12.6875 L56.0078125,12.015625 C56.9401088,11.5781228 57.8619746,11.359375 58.7734375,11.359375 C59.7057338,11.359375 60.4023414,11.6015601 60.8632812,12.0859375 C61.3242211,12.5703149 61.5546875,13.3255157 61.5546875,14.3515625 L61.5546875,20 L60.984375,20 Z M57.859375,19.453125 C58.7656295,19.453125 59.4804661,19.194013 60.0039062,18.6757812 C60.5273464,18.1575495 60.7890625,17.4375046 60.7890625,16.515625 L60.7890625,15.6796875 L59.3046875,15.7421875 C58.1119732,15.7994795 57.2617213,15.9856755 56.7539062,16.3007812 C56.2460912,16.615887 55.9921875,17.1067675 55.9921875,17.7734375 C55.9921875,18.3046902 56.1549463,18.7174464 56.4804688,19.0117188 C56.8059912,19.3059911 57.265622,19.453125 57.859375,19.453125 Z M63.171875,23.84375 C62.7552063,23.84375 62.4036473,23.7786465 62.1171875,23.6484375 L62.1171875,22.9765625 C62.4765643,23.0807297 62.8124984,23.1328125 63.125,23.1328125 C63.9114623,23.1328125 64.3046875,22.6744838 64.3046875,21.7578125 L64.3046875,11.5078125 L65.078125,11.5078125 L65.078125,21.6484375 C65.078125,22.351566 64.9127621,22.8932273 64.5820312,23.2734375 C64.2513004,23.6536477 63.781253,23.84375 63.171875,23.84375 Z M64.1953125,9.1484375 C64.1953125,8.648435 64.3593734,8.3984375 64.6875,8.3984375 C64.8489591,8.3984375 64.97526,8.46354102 65.0664062,8.59375 C65.1575525,8.72395898 65.203125,8.90885297 65.203125,9.1484375 C65.203125,9.38281367 65.1575525,9.56770766 65.0664062,9.703125 C64.97526,9.83854234 64.8489591,9.90625 64.6875,9.90625 C64.3593734,9.90625 64.1953125,9.65364836 64.1953125,9.1484375 Z M68.6953125,20 L67.921875,20 L67.921875,11.5078125 L68.6953125,11.5078125 L68.6953125,20 Z M67.8125,9.1484375 C67.8125,8.648435 67.9765609,8.3984375 68.3046875,8.3984375 C68.4661466,8.3984375 68.5924475,8.46354102 68.6835938,8.59375 C68.77474,8.72395898 68.8203125,8.90885297 68.8203125,9.1484375 C68.8203125,9.38281367 68.77474,9.56770766 68.6835938,9.703125 C68.5924475,9.83854234 68.4661466,9.90625 68.3046875,9.90625 C67.9765609,9.90625 67.8125,9.65364836 67.8125,9.1484375 Z M77.4609375,20 L77.4609375,14.4921875 C77.4609375,13.6380166 77.2812518,13.016929 76.921875,12.6289062 C76.5624982,12.2408835 76.0052121,12.046875 75.25,12.046875 C74.2343699,12.046875 73.4908878,12.3033829 73.0195312,12.8164062 C72.5481747,13.3294296 72.3125,14.1614526 72.3125,15.3125 L72.3125,20 L71.5390625,20 L71.5390625,11.5078125 L72.1953125,11.5078125 L72.34375,12.671875 L72.390625,12.671875 C72.9427111,11.7864539 73.9244721,11.34375 75.3359375,11.34375 C77.2630305,11.34375 78.2265625,12.3775938 78.2265625,14.4453125 L78.2265625,20 L77.4609375,20 Z M87.765625,20 L85.90625,14.3203125 C85.7864577,13.9348939 85.6328134,13.3697954 85.4453125,12.625 L85.3984375,12.625 L85.234375,13.203125 L84.8828125,14.3359375 L82.9921875,20 L82.2265625,20 L79.796875,11.5078125 L80.625,11.5078125 L81.984375,16.4296875 C82.3020849,17.6484436 82.5104162,18.544268 82.609375,19.1171875 L82.65625,19.1171875 C82.9635432,17.8984314 83.1874993,17.0885437 83.328125,16.6875 L85.078125,11.5078125 L85.78125,11.5078125 L87.4453125,16.671875 C87.8203144,17.8958395 88.0494787,18.7057272 88.1328125,19.1015625 L88.1796875,19.1015625 C88.2213544,18.7630191 88.4296856,17.8567782 88.8046875,16.3828125 L90.1015625,11.5078125 L90.8828125,11.5078125 L88.578125,20 L87.765625,20 Z M99.5703125,15.7421875 C99.5703125,17.1276111 99.2343784,18.2096315 98.5625,18.9882812 C97.8906216,19.766931 96.9635476,20.15625 95.78125,20.15625 C95.0364546,20.15625 94.3802112,19.9765643 93.8125,19.6171875 C93.2447888,19.2578107 92.8098973,18.7421909 92.5078125,18.0703125 C92.2057277,17.3984341 92.0546875,16.6224002 92.0546875,15.7421875 C92.0546875,14.3567639 92.3906216,13.2773476 93.0625,12.5039062 C93.7343784,11.7304649 94.6562441,11.34375 95.828125,11.34375 C96.9947975,11.34375 97.9101529,11.7356732 98.5742188,12.5195312 C99.2382846,13.3033893 99.5703125,14.3775973 99.5703125,15.7421875 Z M92.8671875,15.7421875 C92.8671875,16.90886 93.1236954,17.8190071 93.6367188,18.4726562 C94.1497421,19.1263054 94.8749953,19.453125 95.8125,19.453125 C96.7500047,19.453125 97.4752579,19.1263054 97.9882812,18.4726562 C98.5013046,17.8190071 98.7578125,16.90886 98.7578125,15.7421875 C98.7578125,14.5703066 98.4987005,13.6614616 97.9804688,13.015625 C97.462237,12.3697884 96.7343797,12.046875 95.796875,12.046875 C94.8593703,12.046875 94.1367213,12.3684864 93.6289062,13.0117188 C93.1210912,13.6549511 92.8671875,14.5650983 92.8671875,15.7421875 Z M107.84375,20 L107.84375,14.4921875 C107.84375,13.6380166 107.664064,13.016929 107.304688,12.6289062 C106.945311,12.2408835 106.388025,12.046875 105.632812,12.046875 C104.617182,12.046875 103.8737,12.3033829 103.402344,12.8164062 C102.930987,13.3294296 102.695312,14.1614526 102.695312,15.3125 L102.695312,20 L101.921875,20 L101.921875,11.5078125 L102.578125,11.5078125 L102.726562,12.671875 L102.773438,12.671875 C103.325524,11.7864539 104.307285,11.34375 105.71875,11.34375 C107.645843,11.34375 108.609375,12.3775938 108.609375,14.4453125 L108.609375,20 L107.84375,20 Z M114.46875,11.34375 C115.083336,11.34375 115.614581,11.455728 116.0625,11.6796875 C116.510419,11.903647 116.911457,12.2864556 117.265625,12.828125 L117.3125,12.828125 C117.28125,12.1718717 117.265625,11.528649 117.265625,10.8984375 L117.265625,7.84375 L118.03125,7.84375 L118.03125,20 L117.523438,20 L117.328125,18.703125 L117.265625,18.703125 C116.619788,19.6718798 115.692714,20.15625 114.484375,20.15625 C113.312494,20.15625 112.41667,19.7916703 111.796875,19.0625 C111.17708,18.3333297 110.867188,17.2708403 110.867188,15.875 C110.867188,14.4062427 111.174476,13.283858 111.789062,12.5078125 C112.403649,11.731767 113.296869,11.34375 114.46875,11.34375 Z M114.46875,12.046875 C113.541662,12.046875 112.845054,12.3723926 112.378906,13.0234375 C111.912758,13.6744824 111.679688,14.6197855 111.679688,15.859375 C111.679688,18.265637 112.614574,19.46875 114.484375,19.46875 C115.442713,19.46875 116.145831,19.190107 116.59375,18.6328125 C117.041669,18.075518 117.265625,17.1562564 117.265625,15.875 L117.265625,15.7421875 C117.265625,14.4296809 117.045575,13.48568 116.605469,12.9101562 C116.165362,12.3346325 115.45313,12.046875 114.46875,12.046875 Z M124.3125,20.15625 C123.078119,20.15625 122.115889,19.7760455 121.425781,19.015625 C120.735674,18.2552045 120.390625,17.190111 120.390625,15.8203125 C120.390625,14.4661391 120.723955,13.3815145 121.390625,12.5664062 C122.057295,11.751298 122.955724,11.34375 124.085938,11.34375 C125.085943,11.34375 125.874997,11.6927048 126.453125,12.390625 C127.031253,13.0885452 127.320312,14.0364523 127.320312,15.234375 L127.320312,15.859375 L121.203125,15.859375 C121.213542,17.0260475 121.485674,17.9166636 122.019531,18.53125 C122.553388,19.1458364 123.317703,19.453125 124.3125,19.453125 C124.796877,19.453125 125.222654,19.4192712 125.589844,19.3515625 C125.957033,19.2838538 126.421872,19.138022 126.984375,18.9140625 L126.984375,19.6171875 C126.505206,19.8255219 126.062502,19.9674475 125.65625,20.0429688 C125.249998,20.11849 124.802086,20.15625 124.3125,20.15625 Z M124.085938,12.03125 C123.268225,12.03125 122.611982,12.3007786 122.117188,12.8398438 C121.622393,13.3789089 121.333334,14.1562449 121.25,15.171875 L126.5,15.171875 C126.5,14.1874951 126.28646,13.4179715 125.859375,12.8632812 C125.43229,12.308591 124.84115,12.03125 124.085938,12.03125 Z M133.007812,11.34375 C133.367189,11.34375 133.752602,11.380208 134.164062,11.453125 L134.015625,12.1953125 C133.661457,12.1067704 133.294273,12.0625 132.914062,12.0625 C132.190101,12.0625 131.596356,12.3697886 131.132812,12.984375 C130.669269,13.5989614 130.4375,14.3749953 130.4375,15.3125 L130.4375,20 L129.664062,20 L129.664062,11.5078125 L130.320312,11.5078125 L130.398438,13.0390625 L130.453125,13.0390625 C130.802085,12.4140594 131.174477,11.9752617 131.570312,11.7226562 C131.966148,11.4700508 132.44531,11.34375 133.007812,11.34375 Z M136.664062,20 L135.890625,20 L135.890625,7.84375 L136.664062,7.84375 L136.664062,20 Z M144.664062,20 L144.46875,18.65625 L144.40625,18.65625 C143.979165,19.2031277 143.540367,19.5898426 143.089844,19.8164062 C142.639321,20.0429699 142.106774,20.15625 141.492188,20.15625 C140.65885,20.15625 140.010419,19.9427105 139.546875,19.515625 C139.083331,19.0885395 138.851562,18.4973996 138.851562,17.7421875 C138.851562,16.9140584 139.196611,16.2708356 139.886719,15.8125 C140.576826,15.3541644 141.575514,15.1119793 142.882812,15.0859375 L144.5,15.0390625 L144.5,14.4765625 C144.5,13.6692668 144.335939,13.0598979 144.007812,12.6484375 C143.679686,12.2369771 143.151045,12.03125 142.421875,12.03125 C141.635413,12.03125 140.820317,12.2499978 139.976562,12.6875 L139.6875,12.015625 C140.619796,11.5781228 141.541662,11.359375 142.453125,11.359375 C143.385421,11.359375 144.082029,11.6015601 144.542969,12.0859375 C145.003909,12.5703149 145.234375,13.3255157 145.234375,14.3515625 L145.234375,20 L144.664062,20 Z M141.539062,19.453125 C142.445317,19.453125 143.160154,19.194013 143.683594,18.6757812 C144.207034,18.1575495 144.46875,17.4375046 144.46875,16.515625 L144.46875,15.6796875 L142.984375,15.7421875 C141.791661,15.7994795 140.941409,15.9856755 140.433594,16.3007812 C139.925779,16.615887 139.671875,17.1067675 139.671875,17.7734375 C139.671875,18.3046902 139.834634,18.7174464 140.160156,19.0117188 C140.485679,19.3059911 140.94531,19.453125 141.539062,19.453125 Z M153.90625,20 L153.90625,14.4921875 C153.90625,13.6380166 153.726564,13.016929 153.367188,12.6289062 C153.007811,12.2408835 152.450525,12.046875 151.695312,12.046875 C150.679682,12.046875 149.9362,12.3033829 149.464844,12.8164062 C148.993487,13.3294296 148.757812,14.1614526 148.757812,15.3125 L148.757812,20 L147.984375,20 L147.984375,11.5078125 L148.640625,11.5078125 L148.789062,12.671875 L148.835938,12.671875 C149.388024,11.7864539 150.369785,11.34375 151.78125,11.34375 C153.708343,11.34375 154.671875,12.3775938 154.671875,14.4453125 L154.671875,20 L153.90625,20 Z M160.53125,11.34375 C161.145836,11.34375 161.677081,11.455728 162.125,11.6796875 C162.572919,11.903647 162.973957,12.2864556 163.328125,12.828125 L163.375,12.828125 C163.34375,12.1718717 163.328125,11.528649 163.328125,10.8984375 L163.328125,7.84375 L164.09375,7.84375 L164.09375,20 L163.585938,20 L163.390625,18.703125 L163.328125,18.703125 C162.682288,19.6718798 161.755214,20.15625 160.546875,20.15625 C159.374994,20.15625 158.47917,19.7916703 157.859375,19.0625 C157.23958,18.3333297 156.929688,17.2708403 156.929688,15.875 C156.929688,14.4062427 157.236976,13.283858 157.851562,12.5078125 C158.466149,11.731767 159.359369,11.34375 160.53125,11.34375 Z M160.53125,12.046875 C159.604162,12.046875 158.907554,12.3723926 158.441406,13.0234375 C157.975258,13.6744824 157.742188,14.6197855 157.742188,15.859375 C157.742188,18.265637 158.677074,19.46875 160.546875,19.46875 C161.505213,19.46875 162.208331,19.190107 162.65625,18.6328125 C163.104169,18.075518 163.328125,17.1562564 163.328125,15.875 L163.328125,15.7421875 C163.328125,14.4296809 163.108075,13.48568 162.667969,12.9101562 C162.227862,12.3346325 161.51563,12.046875 160.53125,12.046875 Z" id="@rajinwonderland" fill="#1C2022"></path>
        <path d="M10.6542098,10.7383113 L10.6542098,15.9679426 L14.5388115,18.2199712 L14.5388115,22.3407761 L18.7184828,24.7419905 L18.7184828,15.3779663 L10.6542098,10.7383113 Z M11.5789343,9.42649355 L19.5994668,14.0409832 L27.4518758,9.49014961 L23.3067629,7.08758279 L19.699636,9.18064491 L15.8314138,6.95081198 L11.5789343,9.42649355 Z M20.1659164,24.7377968 L24.7896397,22.0736839 L24.7896397,18.1316777 L28.2301893,16.1379456 L28.2301893,10.8467619 L20.1659164,15.4741896 L20.1659164,24.7377968 Z M19.3890581,27 L9,21.0341956 L9,9.04582678 L19.389575,3 L29.7810111,9.02028994 L29.7810111,21.0150688 L19.3890581,27 Z" id="Shape" fill="#1C2022" fill-rule="nonzero"></path>
    </g>
</svg>