<?xml version="1.0" encoding="UTF-8"?>
<svg width="351px" height="50px" viewBox="0 0 351 50" version="1.1" xmlns="http://www.w3.org/2000/svg" xmlns:xlink="http://www.w3.org/1999/xlink">
    <!-- Generator: Sketch 52.6 (67491) - http://www.bohemiancoding.com/sketch -->
    <title>mwlNovvum</title>
    <desc>Created with Sketch.</desc>
    <g id="Canvas" stroke="none" stroke-width="1" fill="none" fill-rule="evenodd">
        <g id="Badges" transform="translate(-225.000000, -269.000000)">
            <g id="mwlNovvum" transform="translate(225.000000, 269.000000)">
                <polygon id="Rectangle" fill="#72F2FF" points="2.84217094e-14 0 175.766 0 175.766 50 2.84217094e-14 50"></polygon>
                <path d="M29.3310547,33 L29.3310547,26.0371094 C29.3310547,25.0019479 29.1292338,24.2467472 28.7255859,23.7714844 C28.3219381,23.2962216 27.7034547,23.0585938 26.8701172,23.0585938 C25.7828722,23.0585938 24.9788438,23.3580699 24.4580078,23.9570312 C23.9371719,24.5559926 23.6767578,25.4967384 23.6767578,26.7792969 L23.6767578,33 L22.6904297,33 L22.6904297,25.7441406 C22.6904297,23.9537671 21.8701254,23.0585938 20.2294922,23.0585938 C19.1162054,23.0585938 18.3056666,23.3824837 17.7978516,24.0302734 C17.2900365,24.6780631 17.0361328,25.7148366 17.0361328,27.140625 L17.0361328,33 L16.0693359,33 L16.0693359,22.3847656 L16.8701172,22.3847656 L17.0751953,23.8398438 L17.1337891,23.8398438 C17.4267593,23.3124974 17.8434218,22.9039728 18.3837891,22.6142578 C18.9241563,22.3245428 19.5198535,22.1796875 20.1708984,22.1796875 C21.8440839,22.1796875 22.9182919,22.8079364 23.3935547,24.0644531 L23.4326172,24.0644531 C23.777671,23.4589813 24.2415335,22.9934912 24.8242188,22.6679688 C25.406904,22.3424463 26.0693322,22.1796875 26.8115234,22.1796875 C27.9703834,22.1796875 28.8395153,22.4889292 29.4189453,23.1074219 C29.9983753,23.7259146 30.2880859,24.7089776 30.2880859,26.0566406 L30.2880859,33 L29.3310547,33 Z M40.1708984,33 L39.9267578,31.3203125 L39.8486328,31.3203125 C39.314776,32.0039097 38.7662789,32.4873033 38.203125,32.7705078 C37.6399711,33.0537124 36.9742877,33.1953125 36.2060547,33.1953125 C35.1643828,33.1953125 34.353844,32.9283881 33.7744141,32.3945312 C33.1949841,31.8606744 32.9052734,31.1217495 32.9052734,30.1777344 C32.9052734,29.1425729 33.3365842,28.3385445 34.1992188,27.765625 C35.0618533,27.1927055 36.3102132,26.8899741 37.9443359,26.8574219 L39.9658203,26.7988281 L39.9658203,26.0957031 C39.9658203,25.0865835 39.7607442,24.3248724 39.3505859,23.8105469 C38.9404276,23.2962214 38.279627,23.0390625 37.3681641,23.0390625 C36.3850862,23.0390625 35.3662162,23.3124973 34.3115234,23.859375 L33.9501953,23.0195312 C35.1155657,22.4726535 36.2678979,22.1992188 37.4072266,22.1992188 C38.572597,22.1992188 39.4433565,22.5019501 40.0195312,23.1074219 C40.595706,23.7128937 40.8837891,24.6568946 40.8837891,25.9394531 L40.8837891,33 L40.1708984,33 Z M36.2646484,32.3164062 C37.3974666,32.3164062 38.2910124,31.9925163 38.9453125,31.3447266 C39.5996126,30.6969369 39.9267578,29.7968808 39.9267578,28.6445312 L39.9267578,27.5996094 L38.0712891,27.6777344 C36.5803962,27.7493493 35.5175813,27.9820944 34.8828125,28.3759766 C34.2480437,28.7698587 33.9306641,29.3834594 33.9306641,30.2167969 C33.9306641,30.8808627 34.1341125,31.3968081 34.5410156,31.7646484 C34.9479187,32.1324888 35.5224572,32.3164062 36.2646484,32.3164062 Z M48.2080078,22.1796875 C48.9762408,22.1796875 49.6402967,22.3196601 50.2001953,22.5996094 C50.7600939,22.8795587 51.261391,23.3580695 51.7041016,24.0351562 L51.7626953,24.0351562 C51.7236326,23.2148396 51.7041016,22.4108112 51.7041016,21.6230469 L51.7041016,17.8046875 L52.6611328,17.8046875 L52.6611328,33 L52.0263672,33 L51.7822266,31.3789062 L51.7041016,31.3789062 C50.8968059,32.5898498 49.7379633,33.1953125 48.2275391,33.1953125 C46.762688,33.1953125 45.6429075,32.7395879 44.8681641,31.828125 C44.0934206,30.9166621 43.7060547,29.5885504 43.7060547,27.84375 C43.7060547,26.0078033 44.0901654,24.6048226 44.8583984,23.6347656 C45.6266314,22.6647087 46.7431567,22.1796875 48.2080078,22.1796875 Z M48.2080078,23.0585938 C47.0491479,23.0585938 46.1783883,23.4654907 45.5957031,24.2792969 C45.0130179,25.093103 44.7216797,26.2747318 44.7216797,27.8242188 C44.7216797,30.8320463 45.8902878,32.3359375 48.2275391,32.3359375 C49.4254617,32.3359375 50.3043592,31.9876337 50.8642578,31.2910156 C51.4241564,30.5943976 51.7041016,29.4453205 51.7041016,27.84375 L51.7041016,27.6777344 C51.7041016,26.0371012 51.4290392,24.8571 50.8789062,24.1376953 C50.3287733,23.4182907 49.4384827,23.0585938 48.2080078,23.0585938 Z M60.5126953,33.1953125 C58.9697188,33.1953125 57.7669314,32.7200568 56.9042969,31.7695312 C56.0416624,30.8190057 55.6103516,29.4876388 55.6103516,27.7753906 C55.6103516,26.0826738 56.0270141,24.7268931 56.8603516,23.7080078 C57.6936891,22.6891225 58.8167247,22.1796875 60.2294922,22.1796875 C61.4794984,22.1796875 62.4658167,22.6158811 63.1884766,23.4882812 C63.9111364,24.3606814 64.2724609,25.5455654 64.2724609,27.0429688 L64.2724609,27.8242188 L56.6259766,27.8242188 C56.6389975,29.2825594 56.9791633,30.3958295 57.6464844,31.1640625 C58.3138054,31.9322955 59.2691995,32.3164062 60.5126953,32.3164062 C61.1181671,32.3164062 61.6503883,32.274089 62.109375,32.1894531 C62.5683617,32.1048173 63.1494105,31.9225274 63.8525391,31.6425781 L63.8525391,32.5214844 C63.2535777,32.7819023 62.7001979,32.9593094 62.1923828,33.0537109 C61.6845678,33.1481125 61.1246775,33.1953125 60.5126953,33.1953125 Z M60.2294922,23.0390625 C59.2073517,23.0390625 58.3870474,23.3759732 57.7685547,24.0498047 C57.150062,24.7236362 56.7887375,25.6953062 56.6845703,26.9648438 L63.2470703,26.9648438 C63.2470703,25.7343688 62.9801459,24.7724644 62.4462891,24.0791016 C61.9124322,23.3857387 61.1735073,23.0390625 60.2294922,23.0390625 Z M80.8837891,33 L78.5595703,25.9003906 C78.40983,25.4186174 78.2177746,24.7122442 77.9833984,23.78125 L77.9248047,23.78125 L77.7197266,24.5039062 L77.2802734,25.9199219 L74.9169922,33 L73.9599609,33 L70.9228516,22.3847656 L71.9580078,22.3847656 L73.6572266,28.5371094 C74.054364,30.0605545 74.314778,31.180335 74.4384766,31.8964844 L74.4970703,31.8964844 C74.8811868,30.3730393 75.1611319,29.3606796 75.3369141,28.859375 L77.5244141,22.3847656 L78.4033203,22.3847656 L80.4833984,28.8398438 C80.9521508,30.3697993 81.2386062,31.382159 81.3427734,31.8769531 L81.4013672,31.8769531 C81.4534508,31.4537739 81.7138648,30.3209728 82.1826172,28.4785156 L83.8037109,22.3847656 L84.7802734,22.3847656 L81.8994141,33 L80.8837891,33 Z M87.8271484,33 L86.8603516,33 L86.8603516,22.3847656 L87.8271484,22.3847656 L87.8271484,33 Z M86.7236328,19.4355469 C86.7236328,18.8105438 86.9287089,18.4980469 87.3388672,18.4980469 C87.5406911,18.4980469 87.6985671,18.5794263 87.8125,18.7421875 C87.9264329,18.9049487 87.9833984,19.1360662 87.9833984,19.4355469 C87.9833984,19.7285171 87.9264329,19.9596346 87.8125,20.1289062 C87.6985671,20.2981779 87.5406911,20.3828125 87.3388672,20.3828125 C86.9287089,20.3828125 86.7236328,20.0670604 86.7236328,19.4355469 Z M94.1845703,32.3359375 C94.7965525,32.3359375 95.3304014,32.2838547 95.7861328,32.1796875 L95.7861328,32.9609375 C95.3173805,33.1171883 94.7770213,33.1953125 94.1650391,33.1953125 C93.2275344,33.1953125 92.5358095,32.944664 92.0898438,32.4433594 C91.643878,31.9420548 91.4208984,31.1543022 91.4208984,30.0800781 L91.4208984,23.2246094 L89.8486328,23.2246094 L89.8486328,22.6582031 L91.4208984,22.21875 L91.9091797,19.8164062 L92.4072266,19.8164062 L92.4072266,22.3847656 L95.5224609,22.3847656 L95.5224609,23.2246094 L92.4072266,23.2246094 L92.4072266,29.9433594 C92.4072266,30.7571655 92.5504543,31.359373 92.8369141,31.75 C93.1233738,32.140627 93.5725881,32.3359375 94.1845703,32.3359375 Z M105.483398,33 L105.483398,26.1152344 C105.483398,25.0475207 105.258791,24.2711613 104.80957,23.7861328 C104.360349,23.3011043 103.663742,23.0585938 102.719727,23.0585938 C101.450189,23.0585938 100.520836,23.3792286 99.9316406,24.0205078 C99.342445,24.6617871 99.0478516,25.7018157 99.0478516,27.140625 L99.0478516,33 L98.0810547,33 L98.0810547,17.8046875 L99.0478516,17.8046875 L99.0478516,22.6386719 L98.9990234,23.9960938 L99.0673828,23.9960938 C99.4645202,23.3580697 99.9658173,22.8958348 100.571289,22.609375 C101.176761,22.3229152 101.928706,22.1796875 102.827148,22.1796875 C105.236015,22.1796875 106.44043,23.4719923 106.44043,26.0566406 L106.44043,33 L105.483398,33 Z M131.342773,17.9609375 C132.150069,18.6380242 132.709959,19.4713492 133.022461,20.4609375 C133.334963,21.4505258 133.380535,22.4466096 133.15918,23.4492188 C132.937824,24.4518279 132.462569,25.3177047 131.733398,26.046875 L124.194336,33.859375 C123.933918,34.119793 123.634442,34.25 123.295898,34.25 C122.957355,34.25 122.657879,34.119793 122.397461,33.859375 L114.858398,26.0859375 C114.129228,25.3307254 113.653972,24.4518279 113.432617,23.4492188 C113.211262,22.4466096 113.256834,21.4505258 113.569336,20.4609375 C113.881837,19.4713492 114.441728,18.6380242 115.249023,17.9609375 C115.952152,17.3619762 116.746415,16.9843758 117.631836,16.828125 C118.517257,16.6718742 119.389644,16.7369777 120.249023,17.0234375 C121.108403,17.3098973 121.863604,17.7916633 122.514648,18.46875 L123.295898,19.25 L124.077148,18.46875 C124.728193,17.7916633 125.483394,17.3098973 126.342773,17.0234375 C127.202153,16.7369777 128.07454,16.6718742 128.959961,16.828125 C129.845382,16.9843758 130.639645,17.3619762 131.342773,17.9609375 Z M145.883789,22.1796875 C147.368171,22.1796875 148.486324,22.6468052 149.238281,23.5810547 C149.990238,24.5153042 150.366211,25.8808504 150.366211,27.6777344 C150.366211,29.4420661 149.970707,30.8027296 149.179688,31.7597656 C148.388668,32.7168017 147.277025,33.1953125 145.844727,33.1953125 C145.089514,33.1953125 144.409183,33.0390641 143.803711,32.7265625 C143.198239,32.4140609 142.719728,31.971357 142.368164,31.3984375 L142.280273,31.3984375 L142.006836,33 L141.401367,33 L141.401367,17.8046875 L142.368164,17.8046875 L142.368164,21.6230469 C142.368164,22.1959664 142.355143,22.7233049 142.329102,23.2050781 L142.299805,24.0351562 L142.368164,24.0351562 C142.771812,23.3971322 143.258461,22.9283869 143.828125,22.6289062 C144.397789,22.3294256 145.083004,22.1796875 145.883789,22.1796875 Z M145.864258,23.0585938 C144.614252,23.0585938 143.719078,23.4166631 143.178711,24.1328125 C142.638344,24.8489619 142.368164,26.0305907 142.368164,27.6777344 L142.368164,27.84375 C142.368164,29.4453205 142.649737,30.5943976 143.212891,31.2910156 C143.776044,31.9876337 144.653314,32.3359375 145.844727,32.3359375 C147.003587,32.3359375 147.875974,31.9306681 148.461914,31.1201172 C149.047854,30.3095663 149.34082,29.1556064 149.34082,27.6582031 C149.34082,24.5917815 148.181978,23.0585938 145.864258,23.0585938 Z M151.52832,22.3847656 L152.524414,22.3847656 L154.770508,28.3417969 C155.454105,30.1712331 155.887043,31.4049447 156.069336,32.0429688 L156.12793,32.0429688 C156.401369,31.2031208 156.847328,29.9498781 157.46582,28.2832031 L159.711914,22.3847656 L160.708008,22.3847656 L155.952148,34.71875 C155.568032,35.7213592 155.24577,36.3984357 154.985352,36.75 C154.724934,37.1015643 154.420575,37.3652335 154.072266,37.5410156 C153.723957,37.7167978 153.302411,37.8046875 152.807617,37.8046875 C152.436522,37.8046875 152.023114,37.7363288 151.567383,37.5996094 L151.567383,36.7597656 C151.944989,36.8639328 152.351886,36.9160156 152.788086,36.9160156 C153.120119,36.9160156 153.413085,36.8378914 153.666992,36.6816406 C153.9209,36.5253898 154.15039,36.2828792 154.355469,35.9541016 C154.560548,35.6253239 154.798176,35.1044958 155.068359,34.3916016 C155.338543,33.6787074 155.512695,33.2148448 155.59082,33 L151.52832,22.3847656 Z" id="made-with--by" fill="#101F2D"></path>
                <path d="M175,0 L351,0 L351,50 L175,50 L175,0 Z M191.964355,36 L196.358887,36 L196.358887,22.3769531 L209.981934,36 L211.593262,36 L211.593262,14.0273438 L207.19873,14.0273438 L207.19873,27.796875 L193.429199,14.0273438 L191.964355,14.0273438 L191.964355,36 Z M226.021973,36 C229.146988,36 231.759267,34.9502058 233.858887,32.8505859 C235.958507,30.7509661 237.008301,28.1386875 237.008301,25.0136719 C237.008301,21.8886562 235.958507,19.2763777 233.858887,17.1767578 C231.759267,15.0771379 229.146988,14.0273438 226.021973,14.0273438 C222.896957,14.0273438 220.284678,15.0771379 218.185059,17.1767578 C216.085439,19.2763777 215.035645,21.8886562 215.035645,25.0136719 C215.035645,28.1289218 216.085439,30.738759 218.185059,32.8432617 C220.284678,34.9477644 222.896957,36 226.021973,36 Z M226.036621,31.8984375 C224.073721,31.8984375 222.48194,31.2392644 221.26123,29.9208984 C220.040521,28.6025325 219.430176,26.9668066 219.430176,25.0136719 C219.430176,23.0605371 220.040521,21.4248113 221.26123,20.1064453 C222.48194,18.7880793 224.063955,18.1289062 226.007324,18.1289062 C227.970225,18.1289062 229.562006,18.7880793 230.782715,20.1064453 C232.003424,21.4248113 232.61377,23.0605371 232.61377,25.0136719 C232.61377,26.9668066 232.003424,28.6025325 230.782715,29.9208984 C229.562006,31.2392644 227.97999,31.8984375 226.036621,31.8984375 Z M238.927246,14.0273438 L247.730957,36 L252.125488,36 L260.899902,14.0273438 L256.212402,14.0273438 L249.85498,30.1259766 L243.614746,14.0273438 L238.927246,14.0273438 Z M263.199707,14.0273438 L272.003418,36 L276.397949,36 L285.172363,14.0273438 L280.484863,14.0273438 L274.127441,30.1259766 L267.887207,14.0273438 L263.199707,14.0273438 Z M288.48291,14.0273438 L288.48291,27.9433594 C288.48291,30.1894644 289.386221,32.0937422 291.192871,33.65625 C292.999521,35.2187578 295.270006,36 298.004395,36 C300.738783,36 303.009268,35.2187578 304.815918,33.65625 C306.622568,32.0937422 307.525879,30.1894644 307.525879,27.9433594 L307.525879,14.0273438 L303.131348,14.0273438 L303.131348,26.7714844 C303.131348,28.4316489 302.643071,29.6523398 301.666504,30.4335938 C300.689937,31.2148477 299.469246,31.6054688 298.004395,31.6054688 C296.539543,31.6054688 295.318853,31.2148477 294.342285,30.4335938 C293.365718,29.6523398 292.877441,28.4316489 292.877441,26.7714844 L292.877441,14.0273438 L288.48291,14.0273438 Z M312.271973,36 L316.666504,36 L316.666504,23.2558594 L323.258301,30.5800781 L329.850098,23.2558594 L329.864746,36 L334.259277,36 L334.259277,14.0273438 L332.794434,14.0273438 L323.258301,24.8671875 L313.736816,14.0273438 L312.271973,14.0273438 L312.271973,36 Z" id="Shape" fill="#101F2D"></path>
            </g>
        </g>
    </g>
</svg>