<?xml version="1.0" encoding="UTF-8"?>
<svg width="175px" height="30px" viewBox="0 0 175 30" version="1.1" xmlns="http://www.w3.org/2000/svg" xmlns:xlink="http://www.w3.org/1999/xlink">
    <!-- Generator: Sketch 52.6 (67491) - http://www.bohemiancoding.com/sketch -->
    <title>twitter</title>
    <desc>Created with Sketch.</desc>
    <g id="twitter" stroke="none" stroke-width="1" fill="none" fill-rule="evenodd">
        <rect fill="#00ACED" x="0" y="0" width="175" height="30"></rect>
        <path d="M25.9296875,11.4375 C25.9557293,11.5416672 25.96875,11.7109363 25.96875,11.9453125 C25.96875,13.8203219 25.5130254,15.6301996 24.6015625,17.375 C23.6640578,19.2239676 22.3489668,20.695307 20.65625,21.7890625 C18.8072824,23.013027 16.6849078,23.625 14.2890625,23.625 C11.9973844,23.625 9.90105117,23.013027 8,21.7890625 C8.28645977,21.8151043 8.61197734,21.828125 8.9765625,21.828125 C10.8776137,21.828125 12.5833258,21.2421934 14.09375,20.0703125 C13.1822871,20.0703125 12.3815139,19.8033881 11.6914062,19.2695312 C11.0012986,18.7356744 10.526043,18.0651082 10.265625,17.2578125 C10.526043,17.2838543 10.7734363,17.296875 11.0078125,17.296875 C11.3723977,17.296875 11.7369773,17.2578129 12.1015625,17.1796875 C11.1640578,16.9713531 10.3828156,16.4895871 9.7578125,15.734375 C9.13280938,14.9791629 8.8203125,14.1197965 8.8203125,13.15625 L8.8203125,13.078125 C9.39323203,13.4166684 10.0052051,13.5989582 10.65625,13.625 C10.1093723,13.234373 9.66666836,12.7395863 9.328125,12.140625 C8.98958164,11.5416637 8.8203125,10.8841182 8.8203125,10.1679688 C8.8203125,9.45181934 9.01562305,8.76823242 9.40625,8.1171875 C10.4218801,9.39323555 11.6653572,10.4088504 13.1367188,11.1640625 C14.6080803,11.9192746 16.177075,12.3359371 17.84375,12.4140625 C17.7916664,12.1015609 17.765625,11.7890641 17.765625,11.4765625 C17.765625,10.7473922 17.9479148,10.0638053 18.3125,9.42578125 C18.6770852,8.78775723 19.1718719,8.28646016 19.796875,7.921875 C20.4218781,7.55728984 21.0989547,7.375 21.828125,7.375 C22.4270863,7.375 22.9804662,7.49218633 23.4882812,7.7265625 C23.9960963,7.96093867 24.4453105,8.27343555 24.8359375,8.6640625 C25.7734422,8.48176992 26.6458293,8.15625234 27.453125,7.6875 C27.1406234,8.65104648 26.5416711,9.40624727 25.65625,9.953125 C26.4375039,9.84895781 27.2187461,9.62760586 28,9.2890625 C27.4270805,10.1224 26.7369832,10.8385387 25.9296875,11.4375 Z" id="" fill="#FFFFFF"></path>
        <path d="M46.296875,15.3359375 C46.296875,16.5234434 46.0612003,17.4765589 45.5898438,18.1953125 C45.1184872,18.9140661 44.4791707,19.2734375 43.671875,19.2734375 C43.208331,19.2734375 42.8320327,19.1328139 42.5429688,18.8515625 C42.2539048,18.5703111 42.0859377,18.1875024 42.0390625,17.703125 L42.0078125,17.703125 C41.783853,18.2239609 41.4609396,18.6158841 41.0390625,18.8789062 C40.6171854,19.1419284 40.1250028,19.2734375 39.5625,19.2734375 C38.7916628,19.2734375 38.1953146,19.0221379 37.7734375,18.5195312 C37.3515604,18.0169246 37.140625,17.3125045 37.140625,16.40625 C37.140625,15.3541614 37.4544239,14.4934929 38.0820312,13.8242188 C38.7096386,13.1549446 39.5286408,12.8203125 40.5390625,12.8203125 C41.2578161,12.8203125 42.0026003,12.9270823 42.7734375,13.140625 L42.6015625,16.765625 L42.6015625,17 C42.6015625,17.5416694 42.6927074,17.9492174 42.875,18.2226562 C43.0572926,18.4960951 43.3593729,18.6328125 43.78125,18.6328125 C44.317711,18.6328125 44.7565087,18.3294301 45.0976562,17.7226562 C45.4388038,17.1158824 45.609375,16.3255257 45.609375,15.3515625 C45.609375,14.3411408 45.4036479,13.455733 44.9921875,12.6953125 C44.5807271,11.934892 43.9934934,11.3502625 43.2304688,10.9414062 C42.4674441,10.53255 41.5963591,10.328125 40.6171875,10.328125 C39.4192648,10.328125 38.3632858,10.587237 37.4492188,11.1054688 C36.5351517,11.6237005 35.8320337,12.3567661 35.3398438,13.3046875 C34.8476538,14.2526089 34.6015625,15.3411397 34.6015625,16.5703125 C34.6015625,18.2474042 35.036454,19.5429642 35.90625,20.4570312 C36.776046,21.3710983 38.0104087,21.828125 39.609375,21.828125 C40.0937524,21.828125 40.5846329,21.7812505 41.0820312,21.6875 C41.5794296,21.5937495 42.1822881,21.4114597 42.890625,21.140625 L42.890625,21.9140625 C41.833328,22.3307312 40.7552138,22.5390625 39.65625,22.5390625 C37.8385326,22.5390625 36.4218801,22.0169323 35.40625,20.9726562 C34.3906199,19.9283802 33.8828125,18.4765718 33.8828125,16.6171875 C33.8828125,15.2838475 34.1653618,14.0846407 34.7304688,13.0195312 C35.2955757,11.9544218 36.0950469,11.1276071 37.1289062,10.5390625 C38.1627656,9.95051789 39.3307227,9.65625 40.6328125,9.65625 C41.7526098,9.65625 42.7434853,9.88801852 43.6054688,10.3515625 C44.4674522,10.8151065 45.1315081,11.4778603 45.5976562,12.3398438 C46.0638044,13.2018272 46.296875,14.2005152 46.296875,15.3359375 Z M37.9453125,16.390625 C37.9453125,17.1354204 38.0885402,17.6953106 38.375,18.0703125 C38.6614598,18.4453144 39.1145802,18.6328125 39.734375,18.6328125 C41.0625066,18.6328125 41.773437,17.7317798 41.8671875,15.9296875 L41.9921875,13.65625 C41.5807271,13.5156243 41.078128,13.4453125 40.484375,13.4453125 C39.7083295,13.4453125 39.0911481,13.7122369 38.6328125,14.2460938 C38.1744769,14.7799506 37.9453125,15.4947872 37.9453125,16.390625 Z M51.9453125,12.34375 C52.3046893,12.34375 52.6901021,12.380208 53.1015625,12.453125 L52.953125,13.1953125 C52.5989566,13.1067704 52.2317727,13.0625 51.8515625,13.0625 C51.1276005,13.0625 50.5338565,13.3697886 50.0703125,13.984375 C49.6067685,14.5989614 49.375,15.3749953 49.375,16.3125 L49.375,21 L48.6015625,21 L48.6015625,12.5078125 L49.2578125,12.5078125 L49.3359375,14.0390625 L49.390625,14.0390625 C49.7395851,13.4140594 50.1119772,12.9752617 50.5078125,12.7226562 C50.9036478,12.4700508 51.3828097,12.34375 51.9453125,12.34375 Z M59.984375,21 L59.7890625,19.65625 L59.7265625,19.65625 C59.299477,20.2031277 58.8606793,20.5898426 58.4101562,20.8164062 C57.9596332,21.0429699 57.4270864,21.15625 56.8125,21.15625 C55.9791625,21.15625 55.3307315,20.9427105 54.8671875,20.515625 C54.4036435,20.0885395 54.171875,19.4973996 54.171875,18.7421875 C54.171875,17.9140584 54.5169236,17.2708356 55.2070312,16.8125 C55.8971389,16.3541644 56.8958268,16.1119793 58.203125,16.0859375 L59.8203125,16.0390625 L59.8203125,15.4765625 C59.8203125,14.6692668 59.6562516,14.0598979 59.328125,13.6484375 C58.9999984,13.2369771 58.4713578,13.03125 57.7421875,13.03125 C56.9557252,13.03125 56.1406292,13.2499978 55.296875,13.6875 L55.0078125,13.015625 C55.9401088,12.5781228 56.8619746,12.359375 57.7734375,12.359375 C58.7057338,12.359375 59.4023414,12.6015601 59.8632812,13.0859375 C60.3242211,13.5703149 60.5546875,14.3255157 60.5546875,15.3515625 L60.5546875,21 L59.984375,21 Z M56.859375,20.453125 C57.7656295,20.453125 58.4804661,20.194013 59.0039062,19.6757812 C59.5273464,19.1575495 59.7890625,18.4375046 59.7890625,17.515625 L59.7890625,16.6796875 L58.3046875,16.7421875 C57.1119732,16.7994795 56.2617213,16.9856755 55.7539062,17.3007812 C55.2460912,17.615887 54.9921875,18.1067675 54.9921875,18.7734375 C54.9921875,19.3046902 55.1549463,19.7174464 55.4804688,20.0117188 C55.8059912,20.3059911 56.265622,20.453125 56.859375,20.453125 Z M62.171875,24.84375 C61.7552063,24.84375 61.4036473,24.7786465 61.1171875,24.6484375 L61.1171875,23.9765625 C61.4765643,24.0807297 61.8124984,24.1328125 62.125,24.1328125 C62.9114623,24.1328125 63.3046875,23.6744838 63.3046875,22.7578125 L63.3046875,12.5078125 L64.078125,12.5078125 L64.078125,22.6484375 C64.078125,23.351566 63.9127621,23.8932273 63.5820312,24.2734375 C63.2513004,24.6536477 62.781253,24.84375 62.171875,24.84375 Z M63.1953125,10.1484375 C63.1953125,9.648435 63.3593734,9.3984375 63.6875,9.3984375 C63.8489591,9.3984375 63.97526,9.46354102 64.0664062,9.59375 C64.1575525,9.72395898 64.203125,9.90885297 64.203125,10.1484375 C64.203125,10.3828137 64.1575525,10.5677077 64.0664062,10.703125 C63.97526,10.8385423 63.8489591,10.90625 63.6875,10.90625 C63.3593734,10.90625 63.1953125,10.6536484 63.1953125,10.1484375 Z M67.6953125,21 L66.921875,21 L66.921875,12.5078125 L67.6953125,12.5078125 L67.6953125,21 Z M66.8125,10.1484375 C66.8125,9.648435 66.9765609,9.3984375 67.3046875,9.3984375 C67.4661466,9.3984375 67.5924475,9.46354102 67.6835938,9.59375 C67.77474,9.72395898 67.8203125,9.90885297 67.8203125,10.1484375 C67.8203125,10.3828137 67.77474,10.5677077 67.6835938,10.703125 C67.5924475,10.8385423 67.4661466,10.90625 67.3046875,10.90625 C66.9765609,10.90625 66.8125,10.6536484 66.8125,10.1484375 Z M76.4609375,21 L76.4609375,15.4921875 C76.4609375,14.6380166 76.2812518,14.016929 75.921875,13.6289062 C75.5624982,13.2408835 75.0052121,13.046875 74.25,13.046875 C73.2343699,13.046875 72.4908878,13.3033829 72.0195312,13.8164062 C71.5481747,14.3294296 71.3125,15.1614526 71.3125,16.3125 L71.3125,21 L70.5390625,21 L70.5390625,12.5078125 L71.1953125,12.5078125 L71.34375,13.671875 L71.390625,13.671875 C71.9427111,12.7864539 72.9244721,12.34375 74.3359375,12.34375 C76.2630305,12.34375 77.2265625,13.3775938 77.2265625,15.4453125 L77.2265625,21 L76.4609375,21 Z M86.765625,21 L84.90625,15.3203125 C84.7864577,14.9348939 84.6328134,14.3697954 84.4453125,13.625 L84.3984375,13.625 L84.234375,14.203125 L83.8828125,15.3359375 L81.9921875,21 L81.2265625,21 L78.796875,12.5078125 L79.625,12.5078125 L80.984375,17.4296875 C81.3020849,18.6484436 81.5104162,19.544268 81.609375,20.1171875 L81.65625,20.1171875 C81.9635432,18.8984314 82.1874993,18.0885437 82.328125,17.6875 L84.078125,12.5078125 L84.78125,12.5078125 L86.4453125,17.671875 C86.8203144,18.8958395 87.0494787,19.7057272 87.1328125,20.1015625 L87.1796875,20.1015625 C87.2213544,19.7630191 87.4296856,18.8567782 87.8046875,17.3828125 L89.1015625,12.5078125 L89.8828125,12.5078125 L87.578125,21 L86.765625,21 Z M98.5703125,16.7421875 C98.5703125,18.1276111 98.2343784,19.2096315 97.5625,19.9882812 C96.8906216,20.766931 95.9635476,21.15625 94.78125,21.15625 C94.0364546,21.15625 93.3802112,20.9765643 92.8125,20.6171875 C92.2447888,20.2578107 91.8098973,19.7421909 91.5078125,19.0703125 C91.2057277,18.3984341 91.0546875,17.6224002 91.0546875,16.7421875 C91.0546875,15.3567639 91.3906216,14.2773476 92.0625,13.5039062 C92.7343784,12.7304649 93.6562441,12.34375 94.828125,12.34375 C95.9947975,12.34375 96.9101529,12.7356732 97.5742188,13.5195312 C98.2382846,14.3033893 98.5703125,15.3775973 98.5703125,16.7421875 Z M91.8671875,16.7421875 C91.8671875,17.90886 92.1236954,18.8190071 92.6367188,19.4726562 C93.1497421,20.1263054 93.8749953,20.453125 94.8125,20.453125 C95.7500047,20.453125 96.4752579,20.1263054 96.9882812,19.4726562 C97.5013046,18.8190071 97.7578125,17.90886 97.7578125,16.7421875 C97.7578125,15.5703066 97.4987005,14.6614616 96.9804688,14.015625 C96.462237,13.3697884 95.7343797,13.046875 94.796875,13.046875 C93.8593703,13.046875 93.1367213,13.3684864 92.6289062,14.0117188 C92.1210912,14.6549511 91.8671875,15.5650983 91.8671875,16.7421875 Z M106.84375,21 L106.84375,15.4921875 C106.84375,14.6380166 106.664064,14.016929 106.304688,13.6289062 C105.945311,13.2408835 105.388025,13.046875 104.632812,13.046875 C103.617182,13.046875 102.8737,13.3033829 102.402344,13.8164062 C101.930987,14.3294296 101.695312,15.1614526 101.695312,16.3125 L101.695312,21 L100.921875,21 L100.921875,12.5078125 L101.578125,12.5078125 L101.726562,13.671875 L101.773438,13.671875 C102.325524,12.7864539 103.307285,12.34375 104.71875,12.34375 C106.645843,12.34375 107.609375,13.3775938 107.609375,15.4453125 L107.609375,21 L106.84375,21 Z M113.46875,12.34375 C114.083336,12.34375 114.614581,12.455728 115.0625,12.6796875 C115.510419,12.903647 115.911457,13.2864556 116.265625,13.828125 L116.3125,13.828125 C116.28125,13.1718717 116.265625,12.528649 116.265625,11.8984375 L116.265625,8.84375 L117.03125,8.84375 L117.03125,21 L116.523438,21 L116.328125,19.703125 L116.265625,19.703125 C115.619788,20.6718798 114.692714,21.15625 113.484375,21.15625 C112.312494,21.15625 111.41667,20.7916703 110.796875,20.0625 C110.17708,19.3333297 109.867188,18.2708403 109.867188,16.875 C109.867188,15.4062427 110.174476,14.283858 110.789062,13.5078125 C111.403649,12.731767 112.296869,12.34375 113.46875,12.34375 Z M113.46875,13.046875 C112.541662,13.046875 111.845054,13.3723926 111.378906,14.0234375 C110.912758,14.6744824 110.679688,15.6197855 110.679688,16.859375 C110.679688,19.265637 111.614574,20.46875 113.484375,20.46875 C114.442713,20.46875 115.145831,20.190107 115.59375,19.6328125 C116.041669,19.075518 116.265625,18.1562564 116.265625,16.875 L116.265625,16.7421875 C116.265625,15.4296809 116.045575,14.48568 115.605469,13.9101562 C115.165362,13.3346325 114.45313,13.046875 113.46875,13.046875 Z M123.3125,21.15625 C122.078119,21.15625 121.115889,20.7760455 120.425781,20.015625 C119.735674,19.2552045 119.390625,18.190111 119.390625,16.8203125 C119.390625,15.4661391 119.723955,14.3815145 120.390625,13.5664062 C121.057295,12.751298 121.955724,12.34375 123.085938,12.34375 C124.085943,12.34375 124.874997,12.6927048 125.453125,13.390625 C126.031253,14.0885452 126.320312,15.0364523 126.320312,16.234375 L126.320312,16.859375 L120.203125,16.859375 C120.213542,18.0260475 120.485674,18.9166636 121.019531,19.53125 C121.553388,20.1458364 122.317703,20.453125 123.3125,20.453125 C123.796877,20.453125 124.222654,20.4192712 124.589844,20.3515625 C124.957033,20.2838538 125.421872,20.138022 125.984375,19.9140625 L125.984375,20.6171875 C125.505206,20.8255219 125.062502,20.9674475 124.65625,21.0429688 C124.249998,21.11849 123.802086,21.15625 123.3125,21.15625 Z M123.085938,13.03125 C122.268225,13.03125 121.611982,13.3007786 121.117188,13.8398438 C120.622393,14.3789089 120.333334,15.1562449 120.25,16.171875 L125.5,16.171875 C125.5,15.1874951 125.28646,14.4179715 124.859375,13.8632812 C124.43229,13.308591 123.84115,13.03125 123.085938,13.03125 Z M132.007812,12.34375 C132.367189,12.34375 132.752602,12.380208 133.164062,12.453125 L133.015625,13.1953125 C132.661457,13.1067704 132.294273,13.0625 131.914062,13.0625 C131.190101,13.0625 130.596356,13.3697886 130.132812,13.984375 C129.669269,14.5989614 129.4375,15.3749953 129.4375,16.3125 L129.4375,21 L128.664062,21 L128.664062,12.5078125 L129.320312,12.5078125 L129.398438,14.0390625 L129.453125,14.0390625 C129.802085,13.4140594 130.174477,12.9752617 130.570312,12.7226562 C130.966148,12.4700508 131.44531,12.34375 132.007812,12.34375 Z M135.664062,21 L134.890625,21 L134.890625,8.84375 L135.664062,8.84375 L135.664062,21 Z M143.664062,21 L143.46875,19.65625 L143.40625,19.65625 C142.979165,20.2031277 142.540367,20.5898426 142.089844,20.8164062 C141.639321,21.0429699 141.106774,21.15625 140.492188,21.15625 C139.65885,21.15625 139.010419,20.9427105 138.546875,20.515625 C138.083331,20.0885395 137.851562,19.4973996 137.851562,18.7421875 C137.851562,17.9140584 138.196611,17.2708356 138.886719,16.8125 C139.576826,16.3541644 140.575514,16.1119793 141.882812,16.0859375 L143.5,16.0390625 L143.5,15.4765625 C143.5,14.6692668 143.335939,14.0598979 143.007812,13.6484375 C142.679686,13.2369771 142.151045,13.03125 141.421875,13.03125 C140.635413,13.03125 139.820317,13.2499978 138.976562,13.6875 L138.6875,13.015625 C139.619796,12.5781228 140.541662,12.359375 141.453125,12.359375 C142.385421,12.359375 143.082029,12.6015601 143.542969,13.0859375 C144.003909,13.5703149 144.234375,14.3255157 144.234375,15.3515625 L144.234375,21 L143.664062,21 Z M140.539062,20.453125 C141.445317,20.453125 142.160154,20.194013 142.683594,19.6757812 C143.207034,19.1575495 143.46875,18.4375046 143.46875,17.515625 L143.46875,16.6796875 L141.984375,16.7421875 C140.791661,16.7994795 139.941409,16.9856755 139.433594,17.3007812 C138.925779,17.615887 138.671875,18.1067675 138.671875,18.7734375 C138.671875,19.3046902 138.834634,19.7174464 139.160156,20.0117188 C139.485679,20.3059911 139.94531,20.453125 140.539062,20.453125 Z M152.90625,21 L152.90625,15.4921875 C152.90625,14.6380166 152.726564,14.016929 152.367188,13.6289062 C152.007811,13.2408835 151.450525,13.046875 150.695312,13.046875 C149.679682,13.046875 148.9362,13.3033829 148.464844,13.8164062 C147.993487,14.3294296 147.757812,15.1614526 147.757812,16.3125 L147.757812,21 L146.984375,21 L146.984375,12.5078125 L147.640625,12.5078125 L147.789062,13.671875 L147.835938,13.671875 C148.388024,12.7864539 149.369785,12.34375 150.78125,12.34375 C152.708343,12.34375 153.671875,13.3775938 153.671875,15.4453125 L153.671875,21 L152.90625,21 Z M159.53125,12.34375 C160.145836,12.34375 160.677081,12.455728 161.125,12.6796875 C161.572919,12.903647 161.973957,13.2864556 162.328125,13.828125 L162.375,13.828125 C162.34375,13.1718717 162.328125,12.528649 162.328125,11.8984375 L162.328125,8.84375 L163.09375,8.84375 L163.09375,21 L162.585938,21 L162.390625,19.703125 L162.328125,19.703125 C161.682288,20.6718798 160.755214,21.15625 159.546875,21.15625 C158.374994,21.15625 157.47917,20.7916703 156.859375,20.0625 C156.23958,19.3333297 155.929688,18.2708403 155.929688,16.875 C155.929688,15.4062427 156.236976,14.283858 156.851562,13.5078125 C157.466149,12.731767 158.359369,12.34375 159.53125,12.34375 Z M159.53125,13.046875 C158.604162,13.046875 157.907554,13.3723926 157.441406,14.0234375 C156.975258,14.6744824 156.742188,15.6197855 156.742188,16.859375 C156.742188,19.265637 157.677074,20.46875 159.546875,20.46875 C160.505213,20.46875 161.208331,20.190107 161.65625,19.6328125 C162.104169,19.075518 162.328125,18.1562564 162.328125,16.875 L162.328125,16.7421875 C162.328125,15.4296809 162.108075,14.48568 161.667969,13.9101562 C161.227862,13.3346325 160.51563,13.046875 159.53125,13.046875 Z" id="@rajinwonderland" fill="#FFFFFF"></path>
    </g>
</svg>